<svg width="83" height="52" xmlns="http://www.w3.org/2000/svg">
  <g fill="none" fill-rule="evenodd">
    <path d="M9.175 10.3c-.417-.433-.854-.762-1.313-.988-.458-.225-1.004-.337-1.637-.337-.617 0-1.154.112-1.612.338-.46.225-.842.533-1.15.925-.31.39-.542.84-.7 1.35-.16.508-.238 1.037-.238 1.587s.092 1.07.275 1.563c.183.49.442.92.775 1.287.333.367.733.654 1.2.863.467.208.992.312 1.575.312.633 0 1.175-.112 1.625-.337.45-.226.867-.555 1.25-.988l1.6 1.6c-.583.65-1.262 1.117-2.037 1.4-.776.283-1.596.425-2.463.425-.917 0-1.754-.15-2.513-.45-.758-.3-1.412-.72-1.962-1.263-.55-.54-.975-1.19-1.275-1.95-.3-.758-.45-1.595-.45-2.512s.15-1.758.45-2.525c.3-.767.72-1.425 1.262-1.975s1.192-.98 1.95-1.287c.76-.31 1.605-.463 2.538-.463.867 0 1.696.154 2.487.463.792.308 1.48.78 2.063 1.412l-1.7 1.55zM13.195.1h2.25v8.875h.05c.283-.633.774-1.146 1.474-1.537.7-.392 1.508-.588 2.424-.588.567 0 1.113.087 1.638.263.525.175.983.445 1.375.812.392.367.704.837.937 1.413.234.575.35 1.254.35 2.037V19h-2.25v-7c0-.55-.075-1.02-.225-1.412-.15-.392-.35-.71-.6-.95-.25-.242-.538-.417-.863-.525-.325-.11-.663-.163-1.013-.163-.466 0-.9.075-1.3.225-.4.15-.75.387-1.05.712-.3.326-.533.738-.7 1.238-.166.5-.25 1.092-.25 1.775V19h-2.25V.1zm14.394 8.5c.632-.583 1.366-1.02 2.2-1.313.832-.29 1.666-.437 2.5-.437.866 0 1.61.108 2.236.325.625.217 1.138.508 1.538.875.4.367.696.787.887 1.262.193.476.29.97.29 1.488v6.05c0 .417.007.8.024 1.15.017.35.042.683.075 1h-2c-.05-.6-.076-1.2-.076-1.8h-.05c-.5.767-1.092 1.308-1.775 1.625-.684.317-1.476.475-2.376.475-.55 0-1.075-.075-1.575-.225-.5-.15-.94-.375-1.314-.675-.375-.3-.67-.67-.887-1.112-.218-.442-.326-.955-.326-1.538 0-.767.17-1.408.512-1.925.342-.517.81-.937 1.4-1.262.592-.326 1.284-.56 2.075-.7.793-.142 1.64-.213 2.54-.213h1.65v-.5c0-.3-.06-.6-.176-.9-.117-.3-.292-.57-.525-.813-.234-.24-.526-.433-.876-.574-.35-.142-.767-.213-1.25-.213-.433 0-.813.042-1.138.125-.325.083-.62.187-.887.313-.268.125-.51.27-.726.437-.217.167-.425.325-.625.475l-1.35-1.4zm6.35 4.7c-.534 0-1.08.03-1.64.087-.557.06-1.065.17-1.524.338-.458.167-.833.4-1.125.7-.29.3-.436.683-.436 1.15 0 .683.23 1.175.687 1.475.46.3 1.08.45 1.864.45.617 0 1.142-.104 1.575-.313.432-.208.782-.48 1.05-.812.266-.333.457-.704.574-1.113.117-.408.175-.812.175-1.212v-.75h-1.2zm7.018-6.15h2.25v1.825h.05c.284-.633.775-1.146 1.475-1.537.7-.392 1.51-.588 2.425-.588.567 0 1.113.087 1.638.263.525.175.983.445 1.375.812.393.367.705.837.938 1.413.234.575.35 1.254.35 2.037V19h-2.25v-7c0-.55-.075-1.02-.225-1.412-.15-.392-.35-.71-.6-.95-.25-.242-.537-.417-.862-.525-.324-.11-.662-.163-1.012-.163-.466 0-.9.075-1.3.225-.4.15-.75.387-1.05.712-.3.326-.533.738-.7 1.238-.166.5-.25 1.092-.25 1.775V19h-2.25V7.15zm26.22 11.75c0 .9-.154 1.72-.463 2.463-.308.74-.746 1.383-1.312 1.925-.567.54-1.25.962-2.05 1.262-.8.3-1.684.45-2.65.45-1.134 0-2.17-.158-3.113-.475-.94-.317-1.837-.867-2.687-1.65l1.525-1.9c.583.633 1.216 1.112 1.9 1.438.683.325 1.458.487 2.325.487.833 0 1.525-.12 2.075-.362.55-.242.987-.555 1.312-.938.325-.383.554-.82.688-1.313.133-.49.2-.987.2-1.487v-1.75h-.075c-.434.717-1.02 1.246-1.763 1.587-.74.342-1.52.513-2.337.513-.867 0-1.67-.154-2.413-.462-.74-.31-1.38-.734-1.912-1.275-.534-.542-.95-1.184-1.25-1.925-.3-.742-.45-1.546-.45-2.413 0-.867.14-1.68.425-2.438.283-.758.687-1.42 1.212-1.987.525-.567 1.16-1.008 1.9-1.325.742-.317 1.57-.475 2.488-.475.8 0 1.58.175 2.337.525.76.35 1.354.842 1.788 1.475h.05v-1.7h2.25V18.9zm-6.15-9.95c-.6 0-1.142.104-1.625.313-.484.208-.892.49-1.225.85-.334.358-.592.79-.775 1.3-.184.508-.275 1.062-.275 1.662 0 1.2.35 2.162 1.05 2.888.7.725 1.65 1.087 2.85 1.087 1.2 0 2.15-.362 2.85-1.088.7-.725 1.05-1.687 1.05-2.887 0-.6-.092-1.154-.275-1.662-.184-.51-.442-.942-.775-1.3-.334-.36-.742-.642-1.225-.85-.484-.21-1.025-.313-1.625-.313zm11.694 4.95c0 .517.113.987.338 1.412.225.426.52.788.887 1.088.367.3.792.533 1.275.7.484.167.984.25 1.5.25.7 0 1.31-.162 1.825-.488.517-.325.992-.754 1.425-1.287l1.7 1.3c-1.25 1.617-3 2.425-5.25 2.425-.933 0-1.78-.158-2.537-.475-.76-.317-1.4-.754-1.925-1.313-.525-.558-.93-1.216-1.213-1.975-.283-.758-.425-1.58-.425-2.462 0-.883.154-1.704.463-2.462.308-.76.733-1.417 1.275-1.976.54-.558 1.187-.995 1.937-1.312.75-.317 1.567-.475 2.45-.475 1.05 0 1.938.183 2.663.55.725.367 1.32.846 1.787 1.438.467.59.804 1.258 1.013 2 .208.74.312 1.495.312 2.262v.8h-9.5zm7.1-1.8c-.016-.5-.096-.958-.237-1.375-.142-.417-.354-.78-.638-1.088-.283-.308-.637-.55-1.062-.725-.425-.175-.92-.262-1.488-.262-.55 0-1.054.104-1.512.313-.46.208-.846.48-1.163.812-.316.333-.562.704-.737 1.112-.175.41-.263.813-.263 1.213h7.1z" fill="#FFF"/>
    <path d="M38.377 51.576c-1.728 0-3.318-.304-4.768-.912-1.452-.608-2.695-1.445-3.73-2.512-1.034-1.067-1.845-2.325-2.43-3.776-.588-1.45-.88-3.02-.88-4.704 0-1.685.292-3.253.88-4.704.585-1.45 1.396-2.71 2.43-3.776 1.035-1.067 2.278-1.904 3.73-2.512 1.45-.608 3.04-.912 4.767-.912 1.728 0 3.317.304 4.768.912 1.45.608 2.693 1.445 3.728 2.512 1.034 1.067 1.845 2.325 2.432 3.776.586 1.45.88 3.02.88 4.704 0 1.685-.294 3.253-.88 4.704-.587 1.45-1.398 2.71-2.432 3.776-1.035 1.067-2.278 1.904-3.728 2.512-1.45.608-3.04.912-4.768.912zm0-2.88c1.3 0 2.474-.24 3.52-.72 1.045-.48 1.94-1.125 2.688-1.936.746-.81 1.322-1.765 1.728-2.864.405-1.1.608-2.267.608-3.504s-.202-2.405-.607-3.504c-.406-1.1-.982-2.053-1.728-2.864-.747-.81-1.643-1.456-2.688-1.936-1.046-.48-2.22-.72-3.52-.72-1.302 0-2.475.24-3.52.72-1.046.48-1.942 1.125-2.688 1.936-.748.81-1.324 1.765-1.73 2.864-.405 1.1-.607 2.267-.607 3.504s.202 2.405.608 3.504c.406 1.1.982 2.053 1.73 2.864.745.81 1.64 1.456 2.687 1.936 1.045.48 2.218.72 3.52.72zM1.912 28.344h4.032l12.48 18.624h.064V28.344h3.072V51h-3.904L5.048 32.376h-.064V51H1.912M52.313 28.344h3.2l4.992 18.112h.064l5.343-18.112h3.52l5.344 18.112h.064l4.993-18.112h3.2L76.44 51h-3.23l-5.505-18.496h-.064L62.17 51h-3.233" fill="#3BEE81"/>
  </g>
</svg>
